<svg xmlns="http://www.w3.org/2000/svg" xmlns:xlink="http://www.w3.org/1999/xlink" width="512" zoomAndPan="magnify" viewBox="0 0 384 383.999986" height="512" preserveAspectRatio="xMidYMid meet" version="1.0"><path fill="#ffffff" d="M 183 384.75 C 122.015625 384.75 61.40625 384.75 0.792969 384.75 C 0.78125 384.640625 0.75 384.53125 0.75 384.417969 C 0.75 256.574219 0.75 128.730469 0.75 0.820312 C 128.671875 0.820312 256.59375 0.820312 384.632812 0.820312 C 384.632812 128.75 384.632812 256.75 384.632812 384.75 C 317.59375 384.75 250.484375 384.75 183 384.75 M 212.042969 216.179688 C 220.152344 204.417969 228.265625 192.652344 236.003906 181.425781 C 239.382812 181.425781 242.238281 181.269531 245.0625 181.5 C 246.226562 181.597656 247.730469 182.226562 248.394531 183.121094 C 254.875 191.871094 261.289062 200.675781 267.507812 209.613281 C 268.59375 211.175781 268.964844 213.40625 269.160156 215.375 C 269.4375 218.109375 269.085938 220.902344 269.265625 223.652344 C 269.699219 230.210938 272.101562 236.007812 276.859375 240.585938 C 282.632812 246.144531 289.652344 246.882812 295.675781 242.1875 C 303.78125 235.871094 306.113281 226.75 305.664062 217.097656 C 305.511719 213.789062 305.027344 211.109375 307.46875 208.523438 C 308.816406 207.09375 309.742188 205.269531 310.882812 203.636719 C 318.871094 192.191406 326.835938 180.726562 334.910156 169.339844 C 335.554688 168.429688 337.128906 167.324219 337.960938 167.539062 C 344.535156 169.207031 349.363281 166.421875 353.210938 161.625 C 361.417969 151.398438 361.964844 136.917969 355.648438 125.742188 C 348.542969 113.167969 336.085938 112.527344 327.820312 124.285156 C 324.5 129.003906 322.96875 134.515625 323.234375 140.425781 C 323.421875 144.636719 323.246094 148.539062 320.433594 152.351562 C 311.9375 163.875 303.964844 175.78125 295.648438 187.4375 C 293.441406 190.527344 291.886719 195.117188 286.414062 193.230469 C 286.121094 193.128906 285.636719 193.5625 285.359375 193.453125 C 284.214844 193.003906 282.710938 192.742188 282.058594 191.871094 C 274.980469 182.378906 268.015625 172.800781 261.109375 163.183594 C 260.480469 162.3125 260.214844 160.976562 260.25 159.871094 C 260.46875 152.96875 260.085938 146.25 256.582031 140 C 253.292969 134.136719 248.882812 129.816406 241.863281 129.839844 C 234.992188 129.859375 230.558594 133.980469 227.480469 139.882812 C 224.417969 145.757812 223.273438 151.960938 223.433594 158.535156 C 223.46875 159.992188 222.980469 161.691406 222.167969 162.902344 C 213.886719 175.222656 205.523438 187.496094 197.101562 199.722656 C 192.628906 206.21875 187.988281 212.597656 183.507812 218.910156 C 176.785156 216.992188 171.730469 219.507812 167.726562 224.1875 C 159.316406 233.996094 158.566406 251.253906 165.820312 262.050781 C 173.21875 273.066406 185.253906 272.910156 192.808594 261.929688 C 197.570312 255.007812 197.742188 247.34375 197.558594 239.464844 C 197.527344 238.113281 197.910156 236.523438 198.65625 235.417969 C 202.925781 229.09375 207.363281 222.882812 212.042969 216.179688 M 117.851562 180.304688 C 104.785156 167.753906 91.617188 155.308594 78.726562 142.578125 C 75.347656 139.242188 72.839844 135.023438 69.394531 130.503906 C 89.929688 130.503906 109.171875 130.417969 128.410156 130.582031 C 131.945312 130.613281 135.152344 132.3125 136.796875 135.761719 C 137.6875 137.632812 138.113281 139.722656 138.796875 141.699219 C 139.816406 144.644531 142.335938 145.496094 144.976562 145.339844 C 147.785156 145.175781 148.175781 142.996094 148.121094 140.492188 C 147.980469 134.371094 148.074219 128.246094 148.070312 122.121094 C 148.0625 116.285156 148.03125 116.253906 142.238281 116.253906 C 105.617188 116.25 68.996094 116.25 32.375 116.25 C 31.625 116.25 30.871094 116.230469 30.125 116.261719 C 27.578125 116.367188 25.753906 117.816406 26.386719 120.222656 C 27.101562 122.917969 28.359375 125.808594 30.242188 127.796875 C 37.214844 135.171875 44.554688 142.199219 51.738281 149.375 C 58.40625 156.039062 65.128906 162.652344 71.679688 169.429688 C 78.980469 176.988281 86.152344 184.667969 93.222656 192.441406 C 93.796875 193.070312 93.597656 195.171875 92.972656 195.984375 C 90.933594 198.625 88.644531 201.101562 86.246094 203.433594 C 75.230469 214.15625 63.964844 224.632812 53.132812 235.539062 C 44.492188 244.234375 36.269531 253.351562 28.074219 262.472656 C 26.996094 263.667969 26.371094 266.402344 27.007812 267.699219 C 27.65625 269.007812 30.132812 270.101562 31.8125 270.105469 C 69.058594 270.238281 106.304688 270.179688 143.546875 270.257812 C 147.003906 270.265625 148.164062 268.980469 148.117188 265.613281 C 147.984375 255.742188 148.023438 245.867188 148.101562 235.992188 C 148.121094 233.347656 147.578125 231.15625 144.714844 230.550781 C 141.535156 229.875 139.625 231.835938 138.804688 234.507812 C 136.277344 242.726562 128.933594 246.039062 121.730469 246.015625 C 104.859375 245.964844 87.984375 246 71.109375 246 C 69.800781 246 68.488281 246 67.175781 246 C 66.929688 245.632812 66.683594 245.261719 66.4375 244.894531 C 70.980469 239.738281 75.316406 234.382812 80.101562 229.46875 C 92.5 216.738281 105.105469 204.214844 117.609375 191.589844 C 122.722656 186.425781 122.699219 186.402344 117.851562 180.304688 Z M 117.851562 180.304688 " fill-opacity="1" fill-rule="nonzero"/><path fill="#8b3dff" d="M 211.890625 216.40625 C 207.363281 222.882812 202.925781 229.09375 198.65625 235.417969 C 197.910156 236.523438 197.527344 238.113281 197.558594 239.464844 C 197.742188 247.34375 197.570312 255.007812 192.808594 261.929688 C 185.253906 272.910156 173.21875 273.066406 165.820312 262.050781 C 158.566406 251.253906 159.316406 233.996094 167.726562 224.1875 C 171.730469 219.507812 176.785156 216.992188 183.507812 218.910156 C 187.988281 212.597656 192.628906 206.21875 197.101562 199.722656 C 205.523438 187.496094 213.886719 175.222656 222.167969 162.902344 C 222.980469 161.691406 223.46875 159.992188 223.433594 158.535156 C 223.273438 151.960938 224.417969 145.757812 227.480469 139.882812 C 230.558594 133.980469 234.992188 129.859375 241.863281 129.839844 C 248.882812 129.816406 253.292969 134.136719 256.582031 140 C 260.085938 146.25 260.46875 152.96875 260.25 159.871094 C 260.214844 160.976562 260.480469 162.3125 261.109375 163.183594 C 268.015625 172.800781 274.980469 182.378906 282.058594 191.871094 C 282.710938 192.742188 284.214844 193.003906 285.359375 193.453125 C 285.636719 193.5625 286.121094 193.128906 286.414062 193.230469 C 291.886719 195.117188 293.441406 190.527344 295.648438 187.4375 C 303.964844 175.78125 311.9375 163.875 320.433594 152.351562 C 323.246094 148.539062 323.421875 144.636719 323.234375 140.425781 C 322.96875 134.515625 324.5 129.003906 327.820312 124.285156 C 336.085938 112.527344 348.542969 113.167969 355.648438 125.742188 C 361.964844 136.917969 361.417969 151.398438 353.210938 161.625 C 349.363281 166.421875 344.535156 169.207031 337.960938 167.539062 C 337.128906 167.324219 335.554688 168.429688 334.910156 169.339844 C 326.835938 180.726562 318.871094 192.191406 310.882812 203.636719 C 309.742188 205.269531 308.816406 207.09375 307.46875 208.523438 C 305.027344 211.109375 305.511719 213.789062 305.664062 217.097656 C 306.113281 226.75 303.78125 235.871094 295.675781 242.1875 C 289.652344 246.882812 282.632812 246.144531 276.859375 240.585938 C 272.101562 236.007812 269.699219 230.210938 269.265625 223.652344 C 269.085938 220.902344 269.4375 218.109375 269.160156 215.375 C 268.964844 213.40625 268.59375 211.175781 267.507812 209.613281 C 261.289062 200.675781 254.875 191.871094 248.394531 183.121094 C 247.730469 182.226562 246.226562 181.597656 245.0625 181.5 C 242.238281 181.269531 239.382812 181.425781 236.003906 181.425781 C 228.265625 192.652344 220.152344 204.417969 211.890625 216.40625 Z M 211.890625 216.40625 " fill-opacity="1" fill-rule="nonzero"/><path fill="#8b3dff" d="M 118.039062 180.488281 C 122.699219 186.402344 122.722656 186.425781 117.609375 191.589844 C 105.105469 204.214844 92.5 216.738281 80.101562 229.46875 C 75.316406 234.382812 70.980469 239.738281 66.4375 244.894531 C 66.683594 245.261719 66.929688 245.632812 67.175781 246 C 68.488281 246 69.800781 246 71.109375 246 C 87.984375 246 104.859375 245.964844 121.730469 246.015625 C 128.933594 246.039062 136.277344 242.726562 138.804688 234.507812 C 139.625 231.835938 141.535156 229.875 144.714844 230.550781 C 147.578125 231.15625 148.121094 233.347656 148.101562 235.992188 C 148.023438 245.867188 147.984375 255.742188 148.117188 265.613281 C 148.164062 268.980469 147.003906 270.265625 143.546875 270.257812 C 106.304688 270.179688 69.058594 270.238281 31.8125 270.105469 C 30.132812 270.101562 27.65625 269.007812 27.007812 267.699219 C 26.371094 266.402344 26.996094 263.667969 28.074219 262.472656 C 36.269531 253.351562 44.492188 244.234375 53.132812 235.539062 C 63.964844 224.632812 75.230469 214.15625 86.246094 203.433594 C 88.644531 201.101562 90.933594 198.625 92.972656 195.984375 C 93.597656 195.171875 93.796875 193.070312 93.222656 192.441406 C 86.152344 184.667969 78.980469 176.988281 71.679688 169.429688 C 65.128906 162.652344 58.40625 156.039062 51.738281 149.375 C 44.554688 142.199219 37.214844 135.171875 30.242188 127.796875 C 28.359375 125.808594 27.101562 122.917969 26.386719 120.222656 C 25.753906 117.816406 27.578125 116.367188 30.125 116.261719 C 30.871094 116.230469 31.625 116.25 32.375 116.25 C 68.996094 116.25 105.617188 116.25 142.238281 116.253906 C 148.03125 116.253906 148.0625 116.285156 148.070312 122.121094 C 148.074219 128.246094 147.980469 134.371094 148.121094 140.492188 C 148.175781 142.996094 147.785156 145.175781 144.976562 145.339844 C 142.335938 145.496094 139.816406 144.644531 138.796875 141.699219 C 138.113281 139.722656 137.6875 137.632812 136.796875 135.761719 C 135.152344 132.3125 131.945312 130.613281 128.410156 130.582031 C 109.171875 130.417969 89.929688 130.503906 69.394531 130.503906 C 72.839844 135.023438 75.347656 139.242188 78.726562 142.578125 C 91.617188 155.308594 104.785156 167.753906 118.039062 180.488281 Z M 118.039062 180.488281 " fill-opacity="1" fill-rule="nonzero"/></svg>